<svg width="437" height="300" viewBox="0 0 437 300" fill="none" xmlns="http://www.w3.org/2000/svg">
<rect x="1" y="1" width="435" height="298" rx="7" fill="white" stroke="#814804" stroke-width="2"/>
<mask id="mask0_205_683" style="mask-type:alpha" maskUnits="userSpaceOnUse" x="0" y="0" width="437" height="300">
<rect x="1" y="1" width="435" height="298" rx="7" fill="white" stroke="white" stroke-width="2"/>
</mask>
<g mask="url(#mask0_205_683)">
<path fill-rule="evenodd" clip-rule="evenodd" d="M236.789 297.987C236.789 297.987 254.918 252.366 316.052 248.986C377.185 245.607 405.011 187.314 405.011 187.314L435.789 129.866V297.987H236.789Z" fill="#193A6A" fill-opacity="0.05"/>
<path d="M406.412 235.693C406.178 233.705 404.987 231.996 403.225 231.124C401.464 230.252 399.416 230.357 397.748 231.404L393.728 233.928C393.061 234.347 392.554 234.961 392.262 235.704C391.97 236.447 391.921 237.25 392.12 238.024C392.319 238.799 392.747 239.473 393.358 239.974C393.969 240.475 394.706 240.755 395.488 240.784L395.54 240.786C397.502 240.874 399.354 241.799 400.629 243.33C400.957 243.724 401.355 244.038 401.802 244.259C402.044 244.379 402.302 244.472 402.571 244.536C403.334 244.715 404.116 244.64 404.833 244.319C405.55 243.998 406.134 243.46 406.523 242.765C406.911 242.069 407.067 241.281 406.974 240.486L406.412 235.693Z" fill="#E3E8F0"/>
<path d="M395.717 230.527C396.536 230.599 397.33 230.284 397.953 229.642C398.546 229.031 398.913 228.189 398.987 227.272C399.06 226.355 398.832 225.462 398.345 224.757C397.833 224.017 397.101 223.57 396.282 223.5C394.636 223.357 393.17 224.817 393.013 226.756C392.89 228.299 393.635 229.687 394.775 230.259C395.066 230.405 395.382 230.498 395.717 230.527Z" fill="#E3E8F0"/>
<path d="M401.81 229.25C403.501 230.009 405.634 229.172 406.566 227.384C407.497 225.595 406.88 223.523 405.19 222.763C403.5 222.004 401.366 222.842 400.434 224.63C399.503 226.418 400.12 228.491 401.81 229.25Z" fill="#E3E8F0"/>
<path d="M406.903 232.712V232.713C407.131 232.935 407.388 233.113 407.665 233.248C408.956 233.874 410.668 233.542 411.847 232.326C412.525 231.627 412.932 230.736 412.992 229.819C413.055 228.86 412.736 227.986 412.094 227.359C411.451 226.731 410.571 226.436 409.616 226.526C408.704 226.612 407.828 227.045 407.15 227.745C405.719 229.221 405.608 231.449 406.903 232.712Z" fill="#E3E8F0"/>
<path d="M414.677 235.279L414.677 235.278C413.865 233.609 411.78 233.059 410.029 234.051C408.279 235.045 407.513 237.212 408.323 238.881C408.618 239.49 409.083 239.951 409.639 240.241C410.608 240.749 411.856 240.741 412.971 240.11C414.721 239.116 415.487 236.949 414.677 235.279Z" fill="#E3E8F0"/>
<path d="M396.412 182.338C396.178 180.349 394.987 178.641 393.225 177.768C391.464 176.896 389.416 177.001 387.748 178.048L383.728 180.572C383.061 180.991 382.554 181.605 382.262 182.348C381.97 183.091 381.921 183.894 382.12 184.669C382.319 185.443 382.747 186.118 383.358 186.618C383.969 187.119 384.706 187.399 385.488 187.428L385.54 187.43C387.502 187.518 389.354 188.443 390.629 189.974C390.957 190.368 391.355 190.683 391.802 190.904C392.044 191.024 392.302 191.116 392.571 191.18C393.334 191.359 394.116 191.285 394.833 190.963C395.55 190.642 396.134 190.104 396.523 189.409C396.911 188.713 397.067 187.925 396.974 187.13L396.412 182.338Z" fill="#E3E8F0"/>
<path d="M385.717 177.171C386.536 177.243 387.33 176.929 387.953 176.286C388.546 175.675 388.913 174.833 388.987 173.916C389.06 172.999 388.832 172.106 388.345 171.401C387.833 170.661 387.101 170.215 386.282 170.144C384.636 170.001 383.17 171.461 383.013 173.4C382.89 174.944 383.635 176.331 384.775 176.903C385.066 177.05 385.382 177.143 385.717 177.171Z" fill="#E3E8F0"/>
<path d="M391.81 175.894C393.501 176.654 395.634 175.816 396.566 174.028C397.497 172.24 396.88 170.167 395.19 169.408C393.5 168.648 391.366 169.486 390.434 171.275C389.503 173.063 390.12 175.135 391.81 175.894Z" fill="#E3E8F0"/>
<path d="M396.903 179.356V179.357C397.131 179.579 397.388 179.757 397.665 179.892C398.956 180.518 400.668 180.186 401.847 178.971C402.525 178.271 402.932 177.381 402.992 176.464C403.055 175.504 402.736 174.63 402.094 174.003C401.451 173.376 400.571 173.08 399.616 173.17C398.704 173.257 397.828 173.69 397.15 174.389C395.719 175.865 395.608 178.094 396.903 179.356Z" fill="#E3E8F0"/>
<path d="M404.677 181.924L404.677 181.923C403.865 180.253 401.78 179.703 400.029 180.695C398.279 181.69 397.513 183.857 398.323 185.526C398.618 186.135 399.083 186.595 399.639 186.886C400.608 187.393 401.856 187.385 402.971 186.754C404.721 185.76 405.487 183.593 404.677 181.924Z" fill="#E3E8F0"/>
<path d="M342.294 227.37C342.014 225.097 340.585 223.144 338.471 222.147C336.357 221.151 333.899 221.27 331.897 222.467L327.073 225.352C326.273 225.83 325.665 226.533 325.315 227.382C324.964 228.231 324.905 229.148 325.144 230.034C325.382 230.919 325.896 231.69 326.629 232.262C327.362 232.834 328.246 233.154 329.185 233.188L329.248 233.19C331.602 233.29 333.825 234.347 335.354 236.097C335.749 236.547 336.226 236.907 336.762 237.159C337.053 237.297 337.362 237.402 337.685 237.475C338.6 237.68 339.539 237.595 340.4 237.227C341.26 236.86 341.961 236.246 342.427 235.451C342.893 234.656 343.08 233.756 342.969 232.847L342.294 227.37Z" fill="#E3E8F0"/>
<path d="M330.17 221.465C331.126 221.547 332.052 221.188 332.779 220.453C333.47 219.755 333.898 218.793 333.984 217.745C334.07 216.697 333.804 215.676 333.236 214.871C332.639 214.025 331.784 213.515 330.829 213.434C328.909 213.271 327.198 214.939 327.015 217.155C326.872 218.919 327.74 220.505 329.07 221.159C329.41 221.326 329.779 221.432 330.17 221.465Z" fill="#E3E8F0"/>
<path d="M337.069 221.116C339.001 222.092 341.439 221.016 342.504 218.717C343.569 216.417 342.863 213.753 340.931 212.776C338.999 211.8 336.561 212.877 335.496 215.177C334.431 217.476 335.137 220.14 337.069 221.116Z" fill="#E3E8F0"/>
<path d="M343.031 224.538L343.032 224.538C343.293 224.793 343.586 224.996 343.903 225.15C345.378 225.865 347.335 225.486 348.682 224.097C349.457 223.297 349.922 222.28 349.991 221.232C350.063 220.135 349.699 219.136 348.964 218.419C348.229 217.703 347.224 217.365 346.133 217.468C345.09 217.567 344.089 218.061 343.314 218.861C341.679 220.548 341.552 223.094 343.031 224.538Z" fill="#E3E8F0"/>
<path d="M349.677 228.232L349.677 228.231C348.865 226.562 346.78 226.012 345.029 227.004C343.279 227.998 342.513 230.165 343.323 231.834C343.618 232.443 344.083 232.904 344.639 233.194C345.608 233.702 346.856 233.694 347.971 233.063C349.721 232.069 350.487 229.902 349.677 228.232Z" fill="#E3E8F0"/>
<path d="M340.176 280.823C339.85 278.124 338.182 275.806 335.716 274.622C333.249 273.439 330.382 273.581 328.047 275.002L322.419 278.428C321.485 278.996 320.775 279.83 320.367 280.838C319.958 281.846 319.89 282.936 320.167 283.987C320.446 285.039 321.046 285.953 321.901 286.633C322.756 287.313 323.787 287.693 324.883 287.732L324.956 287.735C327.703 287.854 330.295 289.109 332.08 291.187C332.54 291.722 333.097 292.149 333.722 292.449C334.062 292.612 334.423 292.738 334.799 292.824C335.867 293.067 336.962 292.966 337.966 292.53C338.969 292.094 339.788 291.364 340.332 290.42C340.875 289.476 341.094 288.407 340.963 287.327L340.176 280.823Z" fill="#E3E8F0"/>
<path d="M325.623 273.813C326.715 273.905 327.774 273.501 328.604 272.675C329.395 271.889 329.884 270.807 329.982 269.627C330.08 268.448 329.776 267.3 329.127 266.394C328.445 265.442 327.468 264.868 326.376 264.778C324.182 264.594 322.227 266.471 322.018 268.964C321.854 270.949 322.846 272.733 324.366 273.468C324.754 273.656 325.177 273.776 325.623 273.813Z" fill="#E3E8F0"/>
<path d="M334.327 273.425C336.501 274.51 339.244 273.314 340.442 270.76C341.64 268.204 340.846 265.243 338.672 264.159C336.5 263.074 333.757 264.27 332.558 266.826C331.361 269.38 332.154 272.341 334.327 273.425Z" fill="#E3E8F0"/>
<path d="M341.161 278.779V278.78C341.455 279.066 341.785 279.295 342.14 279.468C343.8 280.273 346.002 279.846 347.517 278.283C348.389 277.384 348.912 276.239 348.99 275.06C349.071 273.826 348.661 272.702 347.835 271.896C347.008 271.09 345.877 270.71 344.65 270.826C343.477 270.937 342.351 271.494 341.479 272.393C339.639 274.291 339.496 277.156 341.161 278.779Z" fill="#E3E8F0"/>
<path d="M349.631 281.834L349.631 281.833C348.703 279.925 346.321 279.296 344.319 280.43C342.319 281.567 341.444 284.043 342.369 285.951C342.706 286.647 343.237 287.173 343.873 287.505C344.981 288.085 346.407 288.076 347.681 287.355C349.681 286.218 350.556 283.742 349.631 281.834Z" fill="#E3E8F0"/>
</g>
<rect x="1" y="1" width="435" height="298" rx="7" stroke="#814804" stroke-width="2"/>
</svg>
