<svg width="54" height="44" viewBox="0 0 54 44" fill="none" xmlns="http://www.w3.org/2000/svg">
<path fill-rule="evenodd" clip-rule="evenodd" d="M19.7195 2.90789C18.1479 2.90789 16.8696 4.20212 16.8696 5.79502V14.2064C16.8696 15.7972 18.1479 17.0921 19.7195 17.0921H34.2805C35.8528 17.0921 37.1311 15.7972 37.1311 14.2064V5.79502C37.1311 4.20212 35.8528 2.90789 34.2805 2.90789H19.7195ZM34.2805 20H19.7195C16.5656 20 14 17.4008 14 14.2064V5.79501C14 2.59991 16.5656 0 19.7195 0H34.2805C37.4344 0 40 2.59991 40 5.79501V14.2064C40 17.4008 37.4344 20 34.2805 20Z" fill="#3C4758"/>
<path fill-rule="evenodd" clip-rule="evenodd" d="M49.5009 44H4.49912C2.01387 44 0 41.9975 0 39.5277V14.4723C0 12.0025 2.01387 10 4.49912 10H49.5009C51.9854 10 54 12.0025 54 14.4723V39.5277C54 41.9975 51.9854 44 49.5009 44Z" fill="#8D9AAB"/>
<path fill-rule="evenodd" clip-rule="evenodd" d="M49.5009 44H4.49912C2.01387 44 0 41.9975 0 39.5277V14.4723C0 12.0025 2.01387 10 4.49912 10H49.5009C51.9854 10 54 12.0025 54 14.4723V39.5277C54 41.9975 51.9854 44 49.5009 44Z" fill="#738396"/>
<path fill-rule="evenodd" clip-rule="evenodd" d="M1 39.9541V14.0452C1 12.363 2.35772 11 4.03277 11H49.9665C51.6423 11 53 12.363 53 14.0452V39.9548C53 41.637 51.6423 43 49.9665 43H4.03349C2.35772 43 1 41.6363 1 39.9541Z" fill="#8D9AAB"/>
<path fill-rule="evenodd" clip-rule="evenodd" d="M22 16C22 16 20.4802 16.6595 20.0041 18.7091C19.8948 19.177 22 18.94 22 18.94V16Z" fill="#72344D"/>
<path fill-rule="evenodd" clip-rule="evenodd" d="M9.98861 35.2317C10.0938 36.1697 9.45655 37 8.63253 37H3C3 37 3.13338 35.5013 5.15935 35.7149C9.22906 36.1438 9.85078 34 9.85078 34L9.98861 35.2317Z" fill="#72344D"/>
<path fill-rule="evenodd" clip-rule="evenodd" d="M16.5655 23.976C15.3409 24.4972 8.98334 30.5707 9.00003 33.4554C9.00729 34.6877 9.24031 35.6868 9.53503 36.3084C9.73683 36.7329 10.1586 37 10.6232 37H16.4022C16.4022 37 16.7687 36.2167 16.0769 35.928C15.3859 35.6399 13.1885 35.8052 13.1885 35.8052C13.1885 35.8052 14.3471 36.1315 15.1921 35.0552C16.008 34.0163 15.383 33.0663 15.383 33.0663L17.8257 31.1886L18.063 35.3331L18.7207 37H20.3482C20.3482 37 20.5101 36.2167 20.0629 36.011C19.6158 35.8052 19.3305 34.8155 19.3305 34.8155L19.941 31.3121L20.2662 29.6639C21.175 28.6915 21.1438 29.2719 21.8356 27.5408L22.8294 24.0994C22.9506 23.4013 22.7415 21.9792 22.7415 21.9792C22.7415 21.9792 23.9378 21.912 24.5324 21.8651C25.1276 21.8189 25.2191 21.5684 25.2191 21.5684C25.2191 21.5684 26.1105 20.601 25.9885 20.3491C25.8985 20.1636 24.9367 19.9391 24.2601 19.6041C24.062 19.5052 23.8144 18.8612 23.3375 18.5559L21.914 18C21.914 18 21.207 18.1523 20.4295 18.693C19.6521 19.2345 19.6158 19.6864 19.5345 19.8409C19.4524 19.9954 18.0166 23.358 16.5655 23.976Z" fill="#72344D"/>
<path fill-rule="evenodd" clip-rule="evenodd" d="M50 27C50 32.5229 45.5229 37 40 37C34.4778 37 30 32.5229 30 27C30 21.4771 34.4778 17 40 17C45.5229 17 50 21.4771 50 27Z" fill="#A84266"/>
<path fill-rule="evenodd" clip-rule="evenodd" d="M38 33H42V20H38V33Z" fill="#FFFFFE"/>
<path fill-rule="evenodd" clip-rule="evenodd" d="M33 29H46V25H33V29Z" fill="#FFFFFE"/>
</svg>
