<svg width="365" height="385" viewBox="0 0 365 385" fill="none" xmlns="http://www.w3.org/2000/svg">
<rect width="365" height="385" rx="8" fill="white"/>
<mask id="mask0_205_683" style="mask-type:alpha" maskUnits="userSpaceOnUse" x="0" y="0" width="365" height="385">
<rect width="365" height="385" rx="8" fill="white"/>
</mask>
<g mask="url(#mask0_205_683)">
<path fill-rule="evenodd" clip-rule="evenodd" d="M119 382C119 382 141.32 323.658 216.585 319.337C291.85 315.015 326.108 240.467 326.108 240.467L364 167V382H119Z" fill="#193A6A" fill-opacity="0.05"/>
<path d="M337.347 302.473C337.095 299.921 335.808 297.729 333.905 296.609C332.002 295.49 329.79 295.624 327.988 296.968L323.645 300.208C322.924 300.745 322.377 301.533 322.062 302.487C321.747 303.44 321.693 304.47 321.908 305.465C322.123 306.459 322.586 307.324 323.245 307.967C323.905 308.609 324.701 308.969 325.546 309.006L325.603 309.009C327.722 309.121 329.723 310.308 331.1 312.273C331.455 312.779 331.885 313.182 332.367 313.466C332.629 313.62 332.907 313.739 333.198 313.821C334.022 314.051 334.867 313.955 335.642 313.543C336.416 313.13 337.047 312.441 337.467 311.548C337.886 310.655 338.055 309.644 337.954 308.623L337.347 302.473Z" fill="#E3E8F0"/>
<path d="M325.794 295.843C326.679 295.935 327.537 295.531 328.21 294.707C328.85 293.923 329.246 292.843 329.326 291.665C329.405 290.488 329.159 289.343 328.633 288.438C328.08 287.488 327.289 286.915 326.404 286.825C324.627 286.641 323.043 288.515 322.873 291.003C322.74 292.984 323.545 294.765 324.776 295.499C325.09 295.687 325.433 295.806 325.794 295.843Z" fill="#E3E8F0"/>
<path d="M332.376 294.204C334.202 295.179 336.507 294.104 337.513 291.81C338.52 289.514 337.853 286.854 336.027 285.88C334.201 284.905 331.897 285.98 330.89 288.276C329.883 290.57 330.55 293.23 332.376 294.204Z" fill="#E3E8F0"/>
<path d="M337.878 298.647V298.648C338.125 298.933 338.402 299.162 338.701 299.334C340.095 300.138 341.945 299.712 343.218 298.152C343.951 297.254 344.391 296.111 344.456 294.935C344.524 293.703 344.18 292.582 343.485 291.777C342.791 290.972 341.84 290.593 340.809 290.708C339.824 290.819 338.877 291.375 338.145 292.273C336.599 294.167 336.479 297.027 337.878 298.647Z" fill="#E3E8F0"/>
<path d="M346.276 301.942L346.276 301.941C345.399 299.798 343.147 299.092 341.255 300.366C339.364 301.642 338.537 304.423 339.412 306.564C339.731 307.346 340.233 307.937 340.833 308.31C341.881 308.961 343.229 308.951 344.432 308.141C346.324 306.865 347.15 304.084 346.276 301.942Z" fill="#E3E8F0"/>
<path d="M326.544 234C326.292 231.448 325.006 229.255 323.102 228.136C321.2 227.017 318.988 227.151 317.185 228.495L312.842 231.734C312.122 232.272 311.575 233.06 311.259 234.013C310.944 234.967 310.891 235.997 311.106 236.992C311.32 237.986 311.783 238.851 312.443 239.494C313.103 240.136 313.899 240.496 314.744 240.533L314.801 240.536C316.92 240.648 318.92 241.835 320.297 243.8C320.652 244.306 321.082 244.709 321.564 244.993C321.827 245.147 322.105 245.266 322.395 245.348C323.219 245.578 324.064 245.482 324.839 245.07C325.613 244.657 326.245 243.967 326.664 243.075C327.084 242.182 327.252 241.171 327.152 240.15L326.544 234Z" fill="#E3E8F0"/>
<path d="M314.991 227.37C315.876 227.462 316.734 227.058 317.407 226.234C318.047 225.449 318.444 224.369 318.523 223.192C318.602 222.015 318.356 220.869 317.83 219.965C317.278 219.015 316.486 218.442 315.602 218.351C313.824 218.168 312.24 220.042 312.071 222.53C311.938 224.511 312.742 226.292 313.973 227.026C314.288 227.214 314.63 227.333 314.991 227.37Z" fill="#E3E8F0"/>
<path d="M321.573 225.731C323.4 226.705 325.704 225.631 326.711 223.336C327.717 221.041 327.051 218.381 325.224 217.406C323.399 216.432 321.094 217.507 320.087 219.802C319.081 222.097 319.747 224.757 321.573 225.731Z" fill="#E3E8F0"/>
<path d="M327.075 230.174V230.175C327.322 230.46 327.599 230.689 327.898 230.861C329.292 231.665 331.142 231.239 332.416 229.679C333.148 228.781 333.588 227.638 333.653 226.462C333.721 225.23 333.377 224.108 332.682 223.304C331.988 222.499 331.038 222.12 330.006 222.235C329.021 222.346 328.075 222.902 327.342 223.8C325.797 225.694 325.676 228.553 327.075 230.174Z" fill="#E3E8F0"/>
<path d="M335.473 233.469L335.473 233.468C334.596 231.325 332.344 230.619 330.452 231.893C328.561 233.169 327.735 235.949 328.609 238.091C328.928 238.873 329.43 239.464 330.031 239.837C331.078 240.488 332.426 240.478 333.63 239.668C335.521 238.392 336.348 235.611 335.473 233.469Z" fill="#E3E8F0"/>
<path d="M268.083 291.791C267.781 288.874 266.237 286.369 263.953 285.089C261.669 283.81 259.015 283.964 256.852 285.5L251.641 289.202C250.776 289.816 250.119 290.717 249.741 291.806C249.363 292.896 249.299 294.073 249.556 295.21C249.814 296.346 250.369 297.335 251.161 298.069C251.953 298.804 252.908 299.214 253.923 299.257L253.991 299.26C256.534 299.389 258.934 300.746 260.587 302.991C261.013 303.569 261.528 304.03 262.107 304.354C262.422 304.531 262.756 304.667 263.104 304.76C264.093 305.023 265.107 304.913 266.037 304.442C266.966 303.971 267.724 303.182 268.227 302.162C268.731 301.142 268.933 299.986 268.812 298.82L268.083 291.791Z" fill="#E3E8F0"/>
<path d="M254.986 284.214C256.019 284.319 257.019 283.858 257.804 282.915C258.551 282.019 259.014 280.785 259.107 279.439C259.199 278.094 258.912 276.785 258.298 275.751C257.653 274.665 256.73 274.01 255.698 273.907C253.624 273.697 251.776 275.839 251.579 278.682C251.423 280.946 252.362 282.982 253.798 283.821C254.165 284.035 254.564 284.172 254.986 284.214Z" fill="#E3E8F0"/>
<path d="M262.438 283.766C264.526 285.019 267.159 283.637 268.31 280.687C269.46 277.736 268.698 274.316 266.611 273.063C264.524 271.81 261.89 273.192 260.74 276.143C259.59 279.094 260.352 282.513 262.438 283.766Z" fill="#E3E8F0"/>
<path d="M268.88 288.157L268.88 288.157C269.162 288.484 269.479 288.745 269.821 288.942C271.414 289.86 273.529 289.373 274.983 287.591C275.821 286.565 276.323 285.259 276.398 283.914C276.476 282.506 276.082 281.224 275.289 280.305C274.495 279.385 273.409 278.951 272.23 279.084C271.104 279.21 270.023 279.845 269.186 280.872C267.419 283.036 267.282 286.305 268.88 288.157Z" fill="#E3E8F0"/>
<path d="M276.059 292.898L276.059 292.897C275.182 290.755 272.93 290.048 271.038 291.322C269.147 292.598 268.32 295.379 269.195 297.521C269.513 298.302 270.015 298.893 270.616 299.266C271.664 299.917 273.012 299.907 274.216 299.097C276.106 297.821 276.933 295.041 276.059 292.898Z" fill="#E3E8F0"/>
<path d="M265.795 360.39C265.443 356.926 263.642 353.951 260.977 352.432C258.313 350.913 255.215 351.095 252.693 352.919L246.613 357.315C245.604 358.044 244.838 359.115 244.396 360.408C243.955 361.703 243.881 363.101 244.181 364.45C244.482 365.799 245.129 366.974 246.053 367.846C246.977 368.718 248.091 369.206 249.275 369.257L249.354 369.26C252.321 369.413 255.122 371.024 257.05 373.69C257.547 374.377 258.148 374.924 258.824 375.309C259.191 375.518 259.58 375.68 259.987 375.79C261.141 376.103 262.323 375.973 263.408 375.413C264.492 374.854 265.376 373.917 265.964 372.706C266.551 371.494 266.787 370.122 266.646 368.737L265.795 360.39Z" fill="#E3E8F0"/>
<path d="M250.074 351.393C251.254 351.511 252.398 350.992 253.295 349.932C254.149 348.924 254.677 347.535 254.783 346.022C254.889 344.509 254.561 343.035 253.859 341.873C253.122 340.651 252.067 339.914 250.888 339.798C248.517 339.562 246.406 341.971 246.18 345.17C246.002 347.717 247.075 350.007 248.717 350.951C249.136 351.192 249.592 351.346 250.074 351.393Z" fill="#E3E8F0"/>
<path d="M259.477 350.896C261.825 352.288 264.788 350.753 266.082 347.475C267.376 344.196 266.519 340.396 264.171 339.003C261.824 337.612 258.861 339.147 257.566 342.426C256.272 345.704 257.129 349.504 259.477 350.896Z" fill="#E3E8F0"/>
<path d="M266.859 357.767V357.768C267.177 358.135 267.533 358.429 267.917 358.65C269.71 359.684 272.089 359.136 273.726 357.13C274.668 355.976 275.233 354.507 275.317 352.994C275.405 351.41 274.962 349.968 274.069 348.933C273.176 347.899 271.954 347.411 270.628 347.56C269.361 347.702 268.144 348.417 267.203 349.571C265.215 352.007 265.061 355.683 266.859 357.767Z" fill="#E3E8F0"/>
<path d="M276.009 361.687L276.009 361.686C275.007 359.237 272.433 358.43 270.271 359.886C268.11 361.344 267.165 364.522 268.164 366.97C268.529 367.863 269.102 368.538 269.789 368.965C270.986 369.709 272.527 369.697 273.902 368.772C276.064 367.314 277.009 364.136 276.009 361.687Z" fill="#E3E8F0"/>
</g>
</svg>
